<mxfile host="app.diagrams.net" modified="2022-01-24T13:04:24.312Z" agent="5.0 (Windows NT 10.0; WOW64) AppleWebKit/537.36 (KHTML, like Gecko) Chrome/72.0.3626.119 Safari/537.36" etag="a2iQvTgM40shbt_beFxF" version="16.4.0" type="github">
  <diagram name="Page-1" id="d9b1e647-80fa-b4a2-5024-87a742678bcc">
    <mxGraphModel dx="942" dy="1432" grid="1" gridSize="10" guides="1" tooltips="1" connect="1" arrows="1" fold="1" page="1" pageScale="1" pageWidth="1100" pageHeight="850" background="none" math="0" shadow="0">
      <root>
        <mxCell id="0" />
        <mxCell id="1" parent="0" />
        <mxCell id="57fe6abec08f04cb-1" value="Jan" style="shape=step;whiteSpace=wrap;html=1;fontSize=28;fillColor=#0080FF;fontColor=#FFFFFF;strokeColor=none;" parent="1" vertex="1">
          <mxGeometry x="90" y="180" width="170" height="80" as="geometry" />
        </mxCell>
        <mxCell id="57fe6abec08f04cb-2" value="Mar" style="shape=step;whiteSpace=wrap;html=1;fontSize=28;fillColor=#0075E8;fontColor=#FFFFFF;strokeColor=none;" parent="1" vertex="1">
          <mxGeometry x="240" y="180" width="170" height="80" as="geometry" />
        </mxCell>
        <mxCell id="57fe6abec08f04cb-3" value="May" style="shape=step;whiteSpace=wrap;html=1;fontSize=28;fillColor=#0067CC;fontColor=#FFFFFF;strokeColor=none;" parent="1" vertex="1">
          <mxGeometry x="390" y="180" width="170" height="80" as="geometry" />
        </mxCell>
        <mxCell id="57fe6abec08f04cb-4" value="July" style="shape=step;whiteSpace=wrap;html=1;fontSize=28;fillColor=#0062C4;fontColor=#FFFFFF;strokeColor=none;" parent="1" vertex="1">
          <mxGeometry x="540" y="180" width="170" height="80" as="geometry" />
        </mxCell>
        <mxCell id="57fe6abec08f04cb-5" value="Sep" style="shape=step;whiteSpace=wrap;html=1;fontSize=28;fillColor=#0059B0;fontColor=#FFFFFF;strokeColor=none;" parent="1" vertex="1">
          <mxGeometry x="690" y="180" width="170" height="80" as="geometry" />
        </mxCell>
        <mxCell id="57fe6abec08f04cb-6" value="Nov" style="shape=step;whiteSpace=wrap;html=1;fontSize=28;fillColor=#004D99;fontColor=#FFFFFF;strokeColor=none;" parent="1" vertex="1">
          <mxGeometry x="840" y="180" width="170" height="80" as="geometry" />
        </mxCell>
        <mxCell id="57fe6abec08f04cb-7" value="2022" style="text;html=1;strokeColor=none;fillColor=#61BAFF;align=center;verticalAlign=middle;whiteSpace=wrap;fontSize=54;fontStyle=1;fontColor=#004D99;" parent="1" vertex="1">
          <mxGeometry x="120" y="110" width="860" height="60" as="geometry" />
        </mxCell>
        <mxCell id="57fe6abec08f04cb-8" value="Lorem ipsum dolor sit amet, consectetur adipisicing elit, sed do eiusmod tempor incididunt ut labore et dolore magna aliqua. Ut enim ad minim veniam, quis nostrud exercitation ullamco laboris nisi ut aliquip ex ea commodo consequat. Duis aute irure dolor in reprehenderit in voluptate velit esse cillum dolore eu fugiat nulla pariatur. Excepteur sint occaecat cupidatat non proident, sunt in culpa qui officia deserunt mollit anim id est laborum.&lt;br&gt;Sed ut perspiciatis unde omnis iste natus error sit voluptatem accusantium doloremque laudantium, totam rem aperiam, eaque ipsa quae ab illo inventore veritatis et quasi architecto beatae vitae dicta sunt explicabo." style="text;spacingTop=-5;fillColor=#ffffff;whiteSpace=wrap;html=1;align=left;fontSize=12;fontFamily=Helvetica;fillColor=none;strokeColor=none;" parent="1" vertex="1">
          <mxGeometry x="100" y="280" width="140" height="470" as="geometry" />
        </mxCell>
        <mxCell id="57fe6abec08f04cb-9" value="Lorem ipsum dolor sit amet, consectetur adipisicing elit, sed do eiusmod tempor incididunt ut labore et dolore magna aliqua. Ut enim ad minim veniam, quis nostrud exercitation ullamco laboris nisi ut aliquip ex ea commodo consequat. Duis aute irure dolor in reprehenderit in voluptate velit esse cillum dolore eu fugiat nulla pariatur. Excepteur sint occaecat cupidatat non proident, sunt in culpa qui officia deserunt mollit anim id est laborum.&lt;br&gt;Sed ut perspiciatis unde omnis iste natus error sit voluptatem accusantium doloremque laudantium, totam rem aperiam, eaque ipsa quae ab illo inventore veritatis et quasi architecto beatae vitae dicta sunt explicabo." style="text;spacingTop=-5;fillColor=#ffffff;whiteSpace=wrap;html=1;align=left;fontSize=12;fontFamily=Helvetica;fillColor=none;strokeColor=none;" parent="1" vertex="1">
          <mxGeometry x="250" y="280" width="140" height="470" as="geometry" />
        </mxCell>
        <mxCell id="57fe6abec08f04cb-10" value="Lorem ipsum dolor sit amet, consectetur adipisicing elit, sed do eiusmod tempor incididunt ut labore et dolore magna aliqua. Ut enim ad minim veniam, quis nostrud exercitation ullamco laboris nisi ut aliquip ex ea commodo consequat. Duis aute irure dolor in reprehenderit in voluptate velit esse cillum dolore eu fugiat nulla pariatur. Excepteur sint occaecat cupidatat non proident, sunt in culpa qui officia deserunt mollit anim id est laborum.&lt;br&gt;Sed ut perspiciatis unde omnis iste natus error sit voluptatem accusantium doloremque laudantium, totam rem aperiam, eaque ipsa quae ab illo inventore veritatis et quasi architecto beatae vitae dicta sunt explicabo." style="text;spacingTop=-5;fillColor=#ffffff;whiteSpace=wrap;html=1;align=left;fontSize=12;fontFamily=Helvetica;fillColor=none;strokeColor=none;" parent="1" vertex="1">
          <mxGeometry x="400" y="280" width="140" height="470" as="geometry" />
        </mxCell>
        <mxCell id="57fe6abec08f04cb-11" value="Lorem ipsum dolor sit amet, consectetur adipisicing elit, sed do eiusmod tempor incididunt ut labore et dolore magna aliqua. Ut enim ad minim veniam, quis nostrud exercitation ullamco laboris nisi ut aliquip ex ea commodo consequat. Duis aute irure dolor in reprehenderit in voluptate velit esse cillum dolore eu fugiat nulla pariatur. Excepteur sint occaecat cupidatat non proident, sunt in culpa qui officia deserunt mollit anim id est laborum.&lt;br&gt;Sed ut perspiciatis unde omnis iste natus error sit voluptatem accusantium doloremque laudantium, totam rem aperiam, eaque ipsa quae ab illo inventore veritatis et quasi architecto beatae vitae dicta sunt explicabo." style="text;spacingTop=-5;fillColor=#ffffff;whiteSpace=wrap;html=1;align=left;fontSize=12;fontFamily=Helvetica;fillColor=none;strokeColor=none;" parent="1" vertex="1">
          <mxGeometry x="550" y="280" width="140" height="470" as="geometry" />
        </mxCell>
        <mxCell id="57fe6abec08f04cb-12" value="Lorem ipsum dolor sit amet, consectetur adipisicing elit, sed do eiusmod tempor incididunt ut labore et dolore magna aliqua. Ut enim ad minim veniam, quis nostrud exercitation ullamco laboris nisi ut aliquip ex ea commodo consequat. Duis aute irure dolor in reprehenderit in voluptate velit esse cillum dolore eu fugiat nulla pariatur. Excepteur sint occaecat cupidatat non proident, sunt in culpa qui officia deserunt mollit anim id est laborum.&lt;br&gt;Sed ut perspiciatis unde omnis iste natus error sit voluptatem accusantium doloremque laudantium, totam rem aperiam, eaque ipsa quae ab illo inventore veritatis et quasi architecto beatae vitae dicta sunt explicabo." style="text;spacingTop=-5;fillColor=#ffffff;whiteSpace=wrap;html=1;align=left;fontSize=12;fontFamily=Helvetica;fillColor=none;strokeColor=none;" parent="1" vertex="1">
          <mxGeometry x="700" y="280" width="140" height="470" as="geometry" />
        </mxCell>
        <mxCell id="57fe6abec08f04cb-13" value="Lorem ipsum dolor sit amet, consectetur adipisicing elit, sed do eiusmod tempor incididunt ut labore et dolore magna aliqua. Ut enim ad minim veniam, quis nostrud exercitation ullamco laboris nisi ut aliquip ex ea commodo consequat. Duis aute irure dolor in reprehenderit in voluptate velit esse cillum dolore eu fugiat nulla pariatur. Excepteur sint occaecat cupidatat non proident, sunt in culpa qui officia deserunt mollit anim id est laborum.&lt;br&gt;Sed ut perspiciatis unde omnis iste natus error sit voluptatem accusantium doloremque laudantium, totam rem aperiam, eaque ipsa quae ab illo inventore veritatis et quasi architecto beatae vitae dicta sunt explicabo." style="text;spacingTop=-5;fillColor=#ffffff;whiteSpace=wrap;html=1;align=left;fontSize=12;fontFamily=Helvetica;fillColor=none;strokeColor=none;" parent="1" vertex="1">
          <mxGeometry x="855" y="280" width="140" height="470" as="geometry" />
        </mxCell>
        <mxCell id="dQS1Ts8iR14rVGDhFjqy-1" value="Set" style="shape=step;perimeter=stepPerimeter;whiteSpace=wrap;html=1;fixedSize=1;size=30;fontColor=#FFFFFF;fontSize=28;fillColor=#0067CC;strokeColor=none;" vertex="1" parent="1">
          <mxGeometry x="90" y="20" width="170" height="80" as="geometry" />
        </mxCell>
        <mxCell id="dQS1Ts8iR14rVGDhFjqy-2" value="Actor" style="shape=umlActor;verticalLabelPosition=bottom;verticalAlign=top;html=1;outlineConnect=0;fontColor=#FFFFFF;fillColor=#FF3333;strokeColor=#3333FF;rotation=0;" vertex="1" parent="1">
          <mxGeometry x="290" y="30" width="30" height="60" as="geometry" />
        </mxCell>
        <mxCell id="dQS1Ts8iR14rVGDhFjqy-3" value="" style="endArrow=classic;html=1;rounded=0;fontColor=#FFFFFF;" edge="1" parent="1">
          <mxGeometry relative="1" as="geometry">
            <mxPoint x="340" y="59.5" as="sourcePoint" />
            <mxPoint x="440" y="59.5" as="targetPoint" />
          </mxGeometry>
        </mxCell>
        <mxCell id="dQS1Ts8iR14rVGDhFjqy-4" value="" style="shape=message;html=1;outlineConnect=0;fontColor=#FFFFFF;strokeColor=#3333FF;fillColor=#FF3333;" vertex="1" parent="dQS1Ts8iR14rVGDhFjqy-3">
          <mxGeometry width="20" height="14" relative="1" as="geometry">
            <mxPoint x="-10" y="-7" as="offset" />
          </mxGeometry>
        </mxCell>
        <mxCell id="dQS1Ts8iR14rVGDhFjqy-6" value="" style="curved=1;endArrow=classic;html=1;rounded=0;fontColor=#FFFFFF;" edge="1" parent="1">
          <mxGeometry width="50" height="50" relative="1" as="geometry">
            <mxPoint x="460" y="90" as="sourcePoint" />
            <mxPoint x="510" y="40" as="targetPoint" />
            <Array as="points">
              <mxPoint x="510" y="90" />
              <mxPoint x="460" y="40" />
            </Array>
          </mxGeometry>
        </mxCell>
        <mxCell id="dQS1Ts8iR14rVGDhFjqy-8" value="Cross-Functional Flowchart" style="shape=table;childLayout=tableLayout;startSize=40;collapsible=0;recursiveResize=0;expand=0;fontStyle=1;fontColor=#FFFFFF;strokeColor=#3333FF;fillColor=#FF3333;" vertex="1" parent="1">
          <mxGeometry x="380" y="-460" width="430" height="420" as="geometry" />
        </mxCell>
        <mxCell id="dQS1Ts8iR14rVGDhFjqy-9" value="Actor 1" style="shape=tableRow;horizontal=0;startSize=70;swimlaneHead=0;swimlaneBody=0;top=0;left=0;bottom=0;right=0;dropTarget=0;fillColor=none;collapsible=0;recursiveResize=0;expand=0;fontStyle=1;fontColor=#FFFFFF;strokeColor=#3333FF;" vertex="1" parent="dQS1Ts8iR14rVGDhFjqy-8">
          <mxGeometry y="40" width="430" height="127" as="geometry" />
        </mxCell>
        <mxCell id="dQS1Ts8iR14rVGDhFjqy-10" value="Phase 1" style="swimlane;swimlaneHead=0;swimlaneBody=0;fontStyle=0;connectable=0;fillColor=none;startSize=60;collapsible=0;recursiveResize=0;expand=0;fontStyle=1;fontColor=#FFFFFF;strokeColor=#3333FF;" vertex="1" parent="dQS1Ts8iR14rVGDhFjqy-9">
          <mxGeometry x="70" width="120" height="127" as="geometry">
            <mxRectangle width="120" height="127" as="alternateBounds" />
          </mxGeometry>
        </mxCell>
        <mxCell id="dQS1Ts8iR14rVGDhFjqy-11" value="Phase 2" style="swimlane;swimlaneHead=0;swimlaneBody=0;fontStyle=0;connectable=0;fillColor=none;startSize=60;collapsible=0;recursiveResize=0;expand=0;fontStyle=1;fontColor=#FFFFFF;strokeColor=#3333FF;" vertex="1" parent="dQS1Ts8iR14rVGDhFjqy-9">
          <mxGeometry x="190" width="120" height="127" as="geometry">
            <mxRectangle width="120" height="127" as="alternateBounds" />
          </mxGeometry>
        </mxCell>
        <mxCell id="dQS1Ts8iR14rVGDhFjqy-12" value="Phase 3" style="swimlane;swimlaneHead=0;swimlaneBody=0;fontStyle=0;connectable=0;fillColor=none;startSize=60;collapsible=0;recursiveResize=0;expand=0;fontStyle=1;fontColor=#FFFFFF;strokeColor=#3333FF;" vertex="1" parent="dQS1Ts8iR14rVGDhFjqy-9">
          <mxGeometry x="310" width="120" height="127" as="geometry">
            <mxRectangle width="120" height="127" as="alternateBounds" />
          </mxGeometry>
        </mxCell>
        <mxCell id="dQS1Ts8iR14rVGDhFjqy-13" value="Actor 2" style="shape=tableRow;horizontal=0;startSize=70;swimlaneHead=0;swimlaneBody=0;top=0;left=0;bottom=0;right=0;dropTarget=0;fillColor=none;collapsible=0;recursiveResize=0;expand=0;fontStyle=1;fontColor=#FFFFFF;strokeColor=#3333FF;" vertex="1" parent="dQS1Ts8iR14rVGDhFjqy-8">
          <mxGeometry y="167" width="430" height="126" as="geometry" />
        </mxCell>
        <mxCell id="dQS1Ts8iR14rVGDhFjqy-14" value="" style="swimlane;swimlaneHead=0;swimlaneBody=0;fontStyle=0;connectable=0;fillColor=none;startSize=0;collapsible=0;recursiveResize=0;expand=0;fontStyle=1;fontColor=#FFFFFF;strokeColor=#3333FF;" vertex="1" parent="dQS1Ts8iR14rVGDhFjqy-13">
          <mxGeometry x="70" width="120" height="126" as="geometry">
            <mxRectangle width="120" height="126" as="alternateBounds" />
          </mxGeometry>
        </mxCell>
        <mxCell id="dQS1Ts8iR14rVGDhFjqy-15" value="" style="swimlane;swimlaneHead=0;swimlaneBody=0;fontStyle=0;connectable=0;fillColor=none;startSize=0;collapsible=0;recursiveResize=0;expand=0;fontStyle=1;fontColor=#FFFFFF;strokeColor=#3333FF;" vertex="1" parent="dQS1Ts8iR14rVGDhFjqy-13">
          <mxGeometry x="190" width="120" height="126" as="geometry">
            <mxRectangle width="120" height="126" as="alternateBounds" />
          </mxGeometry>
        </mxCell>
        <mxCell id="dQS1Ts8iR14rVGDhFjqy-16" value="" style="swimlane;swimlaneHead=0;swimlaneBody=0;fontStyle=0;connectable=0;fillColor=none;startSize=0;collapsible=0;recursiveResize=0;expand=0;fontStyle=1;fontColor=#FFFFFF;strokeColor=#3333FF;" vertex="1" parent="dQS1Ts8iR14rVGDhFjqy-13">
          <mxGeometry x="310" width="120" height="126" as="geometry">
            <mxRectangle width="120" height="126" as="alternateBounds" />
          </mxGeometry>
        </mxCell>
        <mxCell id="dQS1Ts8iR14rVGDhFjqy-17" value="Actor 3" style="shape=tableRow;horizontal=0;startSize=70;swimlaneHead=0;swimlaneBody=0;top=0;left=0;bottom=0;right=0;dropTarget=0;fillColor=none;collapsible=0;recursiveResize=0;expand=0;fontStyle=1;fontColor=#FFFFFF;strokeColor=#3333FF;" vertex="1" parent="dQS1Ts8iR14rVGDhFjqy-8">
          <mxGeometry y="293" width="430" height="127" as="geometry" />
        </mxCell>
        <mxCell id="dQS1Ts8iR14rVGDhFjqy-18" value="" style="swimlane;swimlaneHead=0;swimlaneBody=0;fontStyle=0;connectable=0;fillColor=none;startSize=0;collapsible=0;recursiveResize=0;expand=0;fontStyle=1;fontColor=#FFFFFF;strokeColor=#3333FF;" vertex="1" parent="dQS1Ts8iR14rVGDhFjqy-17">
          <mxGeometry x="70" width="120" height="127" as="geometry">
            <mxRectangle width="120" height="127" as="alternateBounds" />
          </mxGeometry>
        </mxCell>
        <mxCell id="dQS1Ts8iR14rVGDhFjqy-19" value="" style="swimlane;swimlaneHead=0;swimlaneBody=0;fontStyle=0;connectable=0;fillColor=none;startSize=0;collapsible=0;recursiveResize=0;expand=0;fontStyle=1;fontColor=#FFFFFF;strokeColor=#3333FF;" vertex="1" parent="dQS1Ts8iR14rVGDhFjqy-17">
          <mxGeometry x="190" width="120" height="127" as="geometry">
            <mxRectangle width="120" height="127" as="alternateBounds" />
          </mxGeometry>
        </mxCell>
        <mxCell id="dQS1Ts8iR14rVGDhFjqy-20" value="" style="swimlane;swimlaneHead=0;swimlaneBody=0;fontStyle=0;connectable=0;fillColor=none;startSize=0;collapsible=0;recursiveResize=0;expand=0;fontStyle=1;fontColor=#FFFFFF;strokeColor=#3333FF;" vertex="1" parent="dQS1Ts8iR14rVGDhFjqy-17">
          <mxGeometry x="310" width="120" height="127" as="geometry">
            <mxRectangle width="120" height="127" as="alternateBounds" />
          </mxGeometry>
        </mxCell>
        <mxCell id="dQS1Ts8iR14rVGDhFjqy-21" style="edgeStyle=orthogonalEdgeStyle;rounded=0;orthogonalLoop=1;jettySize=auto;html=1;entryX=0.5;entryY=0;entryDx=0;entryDy=0;fontColor=#FFFFFF;" edge="1" parent="1" source="dQS1Ts8iR14rVGDhFjqy-13" target="dQS1Ts8iR14rVGDhFjqy-1">
          <mxGeometry relative="1" as="geometry" />
        </mxCell>
        <mxCell id="dQS1Ts8iR14rVGDhFjqy-23" value="Cross-Functional" style="shape=tape;whiteSpace=wrap;html=1;fontColor=#FFFFFF;strokeColor=#3333FF;fillColor=#FF3333;size=0.4;" vertex="1" parent="1">
          <mxGeometry x="570" y="-290" width="120" height="100" as="geometry" />
        </mxCell>
      </root>
    </mxGraphModel>
  </diagram>
</mxfile>
